Coordinates
version=1
nRows=16
nColumns=30
inDegrees=yes

Units are S.I. units (second, meters, Newtons, ...)
Angles are in degrees.

endheader
time	floatyaw	floatroll	floatpitch	floatx	floaty	floatz	pro_sup_l	deviation_l	flexion_l	cmc_flexion_l	cmc_abduction_l	mp_flexion_l	ip_flexion_l	2mcp_flexion_l	2mcp_abduction_l	2pm_flexion_l	2md_flexion_l	3mcp_flexion_l	3mcp_abduction_l	3pm_flexion_l	3md_flexion_l	4mcp_flexion_l	4mcp_abduction_l	4pm_flexion_l	4md_flexion_l	5mcp_flexion_l	5mcp_abduction_l	5pm_flexion_l	5md_flexion_l
-0.495000	-160.147433	-5.066637	-73.570646	0.082812	-0.182118	-0.015180	99.963831	3.170765	-0.382558	13.911005	4.793418	-26.174077	-41.794907	31.516032	6.592220	42.271155	28.942337	24.063724	4.066216	44.598331	29.499291	12.613321	-4.373069	52.877145	36.501878	0.102643	-7.449966	63.209660	42.605682
-0.485000	-160.147433	-5.066637	-73.570646	0.082710	-0.181964	-0.015382	99.976064	3.208941	-0.349713	13.913987	4.756449	-26.183468	-41.830467	31.487703	6.590540	42.267407	28.936967	24.029869	4.071629	44.595553	29.492371	12.626167	-4.381194	52.876006	36.488884	0.110421	-7.445815	63.188784	42.584257
-0.475000	-160.147433	-5.066637	-73.570646	0.082581	-0.181783	-0.015617	99.979261	3.253108	-0.308104	13.914448	4.715267	-26.192890	-41.865912	31.451903	6.587098	42.265121	28.929948	24.011313	4.073895	44.591850	29.482105	12.647859	-4.382357	52.868209	36.469253	0.139690	-7.439807	63.158371	42.548071
-0.465000	-160.147433	-5.066637	-73.570646	0.082416	-0.181578	-0.015887	99.949510	3.299676	-0.260528	13.901216	4.687505	-26.202441	-41.891470	31.409764	6.579016	42.274895	28.930076	24.012158	4.071713	44.589322	29.471972	12.683517	-4.376448	52.846200	36.443500	0.191638	-7.431744	63.119801	42.503134
-0.455000	-160.147433	-5.066637	-73.570646	0.082212	-0.181357	-0.016186	99.865533	3.345911	-0.212085	13.864357	4.682192	-26.214277	-41.902393	31.364339	6.563546	42.302858	28.943653	24.032107	4.064442	44.585598	29.463416	12.736048	-4.365306	52.803401	36.412505	0.262802	-7.420534	63.071219	42.454936
-0.445000	-160.147433	-5.066637	-73.570646	0.081966	-0.181124	-0.016514	99.717856	3.391445	-0.169616	13.799856	4.693688	-26.230306	-41.900364	31.321047	6.539461	42.346272	28.970621	24.067846	4.052137	44.574970	29.455283	12.805781	-4.351422	52.736438	36.377302	0.346755	-7.404996	63.009481	42.407137
-0.435000	-160.147433	-5.066637	-73.570646	0.081677	-0.180881	-0.016870	99.513920	3.438401	-0.140339	13.712907	4.705334	-26.248541	-41.889837	31.286223	6.508794	42.394115	29.004357	24.114239	4.035668	44.552841	29.445722	12.890870	-4.336951	52.647349	36.339677	0.436259	-7.385238	62.934463	42.362434
-0.425000	-160.147433	-5.066637	-73.570646	0.081346	-0.180624	-0.017258	99.276125	3.489611	-0.130233	13.617753	4.701546	-26.260494	-41.871395	31.264193	6.478058	42.432506	29.035259	24.164891	4.016858	44.520833	29.435134	12.988226	-4.323533	52.544550	36.302968	0.525209	-7.363954	62.852951	42.324464
-0.415000	-160.147433	-5.066637	-73.570646	0.080969	-0.180347	-0.017685	99.032889	3.545616	-0.142702	13.533654	4.680694	-26.252115	-41.836994	31.254406	6.457665	42.451693	29.055774	24.212669	3.998302	44.488687	29.427530	13.094591	-4.312427	52.440838	36.271784	0.610014	-7.346918	62.778870	42.298559
-0.405000	-160.147433	-5.066637	-73.570646	0.080541	-0.180043	-0.018153	98.805747	3.602180	-0.177624	13.478828	4.659170	-26.209464	-41.772232	31.250357	6.458670	42.450873	29.063928	24.251142	3.982617	44.470396	29.428446	13.207226	-4.304311	52.347917	36.249983	0.689766	-7.341940	62.728175	42.290044
-0.395000	-160.147433	-5.066637	-73.570646	0.080055	-0.179714	-0.018667	98.597768	3.650006	-0.230675	13.465742	4.662050	-26.127854	-41.667551	31.241225	6.487493	42.438804	29.063629	24.276899	3.971356	44.475711	29.440053	13.323548	-4.298829	52.270043	36.238002	0.764609	-7.355961	62.710199	42.300720
-0.385000	-160.147433	-5.066637	-73.570646	0.079502	-0.179365	-0.019228	98.389471	3.677100	-0.293076	13.500554	4.705142	-26.019876	-41.533656	31.215900	6.541281	42.430100	29.061900	24.291530	3.964225	44.502138	29.456884	13.439358	-4.294600	52.201529	36.231947	0.833008	-7.391015	62.720375	42.325918
-0.375000	-160.147433	-5.066637	-73.570646	0.078876	-0.179006	-0.019836	98.146357	3.672497	-0.352496	13.586235	4.780261	-25.915954	-41.409800	31.167864	6.607226	42.438540	29.064662	24.301535	3.959106	44.533771	29.466286	13.546507	-4.290072	52.131057	36.226035	0.890209	-7.441194	62.739734	42.354552
-0.365000	-160.147433	-5.066637	-73.570646	0.078183	-0.178648	-0.020486	97.836447	3.629283	-0.395739	13.725365	4.854044	-25.854024	-41.354416	31.098725	6.667266	42.469725	29.073361	24.315228	3.952966	44.549920	29.455379	13.632268	-4.284611	52.050860	36.217325	0.929714	-7.493377	62.743937	42.373337
-0.355000	-160.147433	-5.066637	-73.570646	0.077441	-0.178300	-0.021169	97.449400	3.545484	-0.412851	13.918577	4.880976	-25.862794	-41.419490	31.018432	6.705848	42.516566	29.084341	24.337172	3.943316	44.539811	29.421801	13.682483	-4.278806	51.964825	36.209342	0.946867	-7.533074	62.719636	42.374223
-0.345000	-160.147433	-5.066637	-73.570646	0.076678	-0.177962	-0.021874	97.005703	3.422665	-0.401068	14.158549	4.821676	-25.949466	-41.624583	30.941560	6.715887	42.561212	29.091683	24.362589	3.929693	44.514592	29.382010	13.688339	-4.273597	51.889775	36.211392	0.941749	-7.552999	62.679708	42.361415
